<?xml version="1.0" standalone="no"?>
<!DOCTYPE svg PUBLIC "-//W3C//DTD SVG 20010904//EN"
 "http://www.w3.org/TR/2001/REC-SVG-20010904/DTD/svg10.dtd">
<svg version="1.0" xmlns="http://www.w3.org/2000/svg"
 width="276.000000pt" height="276.000000pt" viewBox="0 0 276.000000 276.000000"
 preserveAspectRatio="xMidYMid meet">
<metadata>
Created by potrace 1.14, written by Peter Selinger 2001-2017
</metadata>
<g transform="translate(0.000000,276.000000) scale(0.100000,-0.100000)"
fill="#000000" stroke="none">
<path d="M1240 2754 c-14 -2 -68 -12 -120 -21 -104 -19 -99 -17 -120 -25 -8
-4 -40 -14 -70 -23 -30 -9 -102 -40 -159 -68 -138 -69 -141 -71 -141 -79 0 -5
-5 -8 -12 -8 -15 0 -183 -137 -234 -191 -45 -48 -159 -197 -187 -244 -35 -58
-121 -245 -122 -265 0 -3 -3 -10 -7 -16 -4 -6 -10 -26 -13 -44 -3 -18 -8 -37
-11 -42 -3 -5 -7 -19 -9 -31 -2 -12 -11 -69 -20 -127 -13 -79 -16 -137 -11
-235 5 -113 12 -163 40 -295 27 -126 135 -357 210 -451 12 -14 32 -40 46 -59
74 -99 220 -230 345 -311 62 -40 222 -116 295 -139 243 -79 529 -89 770 -30
25 7 53 13 63 15 9 2 23 7 30 12 6 4 21 9 32 10 19 3 235 108 280 136 97 60
256 202 321 286 27 36 54 69 59 75 43 45 198 346 178 346 -3 0 -1 6 4 12 8 11
23 59 39 131 1 4 2 8 4 10 2 2 2 3 20 132 16 112 8 341 -16 445 -9 41 -18 82
-19 90 -2 8 -4 15 -5 15 -1 0 -3 7 -5 15 -17 78 -131 318 -179 377 -8 10 -35
44 -60 76 -49 64 -142 164 -173 187 -11 8 -54 40 -94 72 -159 121 -346 202
-564 244 -78 15 -335 27 -385 18z"/>
<path d="M2489 390 c-74 -22 -119 -86 -119 -167 0 -68 55 -149 109 -161 88
-20 166 6 203 66 23 38 26 47 29 97 7 108 -114 198 -222 165z m117 -40 c96
-47 104 -178 16 -245 -35 -26 -125 -26 -164 -1 -45 29 -64 87 -56 169 1 9 5
17 9 17 4 0 10 9 14 19 7 23 79 61 114 61 14 0 44 -9 67 -20z"/>
<path d="M2515 317 c-44 -15 -58 -33 -63 -85 -3 -40 0 -51 22 -74 19 -22 34
-28 66 -28 52 0 102 45 71 65 -6 3 -13 -1 -18 -8 -14 -25 -50 -38 -76 -28 -27
11 -37 29 -37 70 0 57 61 90 97 52 12 -13 23 -17 32 -12 10 7 8 13 -9 29 -29
26 -49 31 -85 19z"/>
</g>
</svg>
